<svg viewBox="0 0 880 280" width="880" height="280" xmlns="http://www.w3.org/2000/svg" role="img" aria-label="$ git log --graph --since=1.year">
<style>text { font-family: 'Cascadia Code', 'Fira Code', Consolas, 'DejaVu Sans Mono', monospace; } .bar { font-size: 11px; fill: #484f58; } .num { font-size: 38px; font-weight: bold; fill: #e6edf3; } .mid { font-size: 26px; font-weight: bold; fill: #e6edf3; } .lbl { font-size: 11px; fill: #8b949e; letter-spacing: 2px; } .leg { font-size: 12px; fill: #8b949e; }</style>
<rect x="0.5" y="0.5" width="879" height="279" rx="6" fill="#0d1117" stroke="#30363d"/>
<path d="M 0.5 6.5 a 6 6 0 0 1 6 -6 h 867 a 6 6 0 0 1 6 6 v 25.5 h -879 z" fill="#161b22"/>
<circle cx="22" cy="16" r="5" fill="#30363d"/>
<circle cx="42" cy="16" r="5" fill="#30363d"/>
<circle cx="62" cy="16" r="5" fill="#30363d"/>
<text x="440" y="21" text-anchor="middle" class="bar">$ git log --graph --since=1.year</text>
<text x="856" y="21" text-anchor="end" class="bar">streaks computed from raw data</text>
<g opacity="0"><animate attributeName="opacity" from="0" to="1" begin="0.20s" dur="0.3s" fill="freeze"/><rect x="32" y="50" width="10" height="10" rx="2" fill="#161b22" stroke="#21262d"/><rect x="32" y="62" width="10" height="10" rx="2" fill="#161b22" stroke="#21262d"/><rect x="32" y="74" width="10" height="10" rx="2" fill="#161b22" stroke="#21262d"/><rect x="32" y="86" width="10" height="10" rx="2" fill="#161b22" stroke="#21262d"/><rect x="32" y="98" width="10" height="10" rx="2" fill="#161b22" stroke="#21262d"/><rect x="32" y="110" width="10" height="10" rx="2" fill="#161b22" stroke="#21262d"/><rect x="32" y="122" width="10" height="10" rx="2" fill="#161b22" stroke="#21262d"/></g>
<g opacity="0"><animate attributeName="opacity" from="0" to="1" begin="0.23s" dur="0.3s" fill="freeze"/><rect x="44" y="50" width="10" height="10" rx="2" fill="#161b22" stroke="#21262d"/><rect x="44" y="62" width="10" height="10" rx="2" fill="#161b22" stroke="#21262d"/><rect x="44" y="74" width="10" height="10" rx="2" fill="#161b22" stroke="#21262d"/><rect x="44" y="86" width="10" height="10" rx="2" fill="#161b22" stroke="#21262d"/><rect x="44" y="98" width="10" height="10" rx="2" fill="#161b22" stroke="#21262d"/><rect x="44" y="110" width="10" height="10" rx="2" fill="#161b22" stroke="#21262d"/><rect x="44" y="122" width="10" height="10" rx="2" fill="#161b22" stroke="#21262d"/></g>
<g opacity="0"><animate attributeName="opacity" from="0" to="1" begin="0.25s" dur="0.3s" fill="freeze"/><rect x="56" y="50" width="10" height="10" rx="2" fill="#161b22" stroke="#21262d"/><rect x="56" y="62" width="10" height="10" rx="2" fill="#161b22" stroke="#21262d"/><rect x="56" y="74" width="10" height="10" rx="2" fill="#161b22" stroke="#21262d"/><rect x="56" y="86" width="10" height="10" rx="2" fill="#161b22" stroke="#21262d"/><rect x="56" y="98" width="10" height="10" rx="2" fill="#161b22" stroke="#21262d"/><rect x="56" y="110" width="10" height="10" rx="2" fill="#161b22" stroke="#21262d"/><rect x="56" y="122" width="10" height="10" rx="2" fill="#161b22" stroke="#21262d"/></g>
<g opacity="0"><animate attributeName="opacity" from="0" to="1" begin="0.28s" dur="0.3s" fill="freeze"/><rect x="68" y="50" width="10" height="10" rx="2" fill="#161b22" stroke="#21262d"/><rect x="68" y="62" width="10" height="10" rx="2" fill="#161b22" stroke="#21262d"/><rect x="68" y="74" width="10" height="10" rx="2" fill="#161b22" stroke="#21262d"/><rect x="68" y="86" width="10" height="10" rx="2" fill="#161b22" stroke="#21262d"/><rect x="68" y="98" width="10" height="10" rx="2" fill="#161b22" stroke="#21262d"/><rect x="68" y="110" width="10" height="10" rx="2" fill="#161b22" stroke="#21262d"/><rect x="68" y="122" width="10" height="10" rx="2" fill="#161b22" stroke="#21262d"/></g>
<g opacity="0"><animate attributeName="opacity" from="0" to="1" begin="0.30s" dur="0.3s" fill="freeze"/><rect x="80" y="50" width="10" height="10" rx="2" fill="#161b22" stroke="#21262d"/><rect x="80" y="62" width="10" height="10" rx="2" fill="#161b22" stroke="#21262d"/><rect x="80" y="74" width="10" height="10" rx="2" fill="#161b22" stroke="#21262d"/><rect x="80" y="86" width="10" height="10" rx="2" fill="#161b22" stroke="#21262d"/><rect x="80" y="98" width="10" height="10" rx="2" fill="#161b22" stroke="#21262d"/><rect x="80" y="110" width="10" height="10" rx="2" fill="#161b22" stroke="#21262d"/><rect x="80" y="122" width="10" height="10" rx="2" fill="#161b22" stroke="#21262d"/></g>
<g opacity="0"><animate attributeName="opacity" from="0" to="1" begin="0.33s" dur="0.3s" fill="freeze"/><rect x="92" y="50" width="10" height="10" rx="2" fill="#161b22" stroke="#21262d"/><rect x="92" y="62" width="10" height="10" rx="2" fill="#161b22" stroke="#21262d"/><rect x="92" y="74" width="10" height="10" rx="2" fill="#161b22" stroke="#21262d"/><rect x="92" y="86" width="10" height="10" rx="2" fill="#161b22" stroke="#21262d"/><rect x="92" y="98" width="10" height="10" rx="2" fill="#161b22" stroke="#21262d"/><rect x="92" y="110" width="10" height="10" rx="2" fill="#161b22" stroke="#21262d"/><rect x="92" y="122" width="10" height="10" rx="2" fill="#161b22" stroke="#21262d"/></g>
<g opacity="0"><animate attributeName="opacity" from="0" to="1" begin="0.35s" dur="0.3s" fill="freeze"/><rect x="104" y="50" width="10" height="10" rx="2" fill="#161b22" stroke="#21262d"/><rect x="104" y="62" width="10" height="10" rx="2" fill="#161b22" stroke="#21262d"/><rect x="104" y="74" width="10" height="10" rx="2" fill="#161b22" stroke="#21262d"/><rect x="104" y="86" width="10" height="10" rx="2" fill="#161b22" stroke="#21262d"/><rect x="104" y="98" width="10" height="10" rx="2" fill="#0e4429"/><rect x="104" y="110" width="10" height="10" rx="2" fill="#0e4429"/><rect x="104" y="122" width="10" height="10" rx="2" fill="#161b22" stroke="#21262d"/></g>
<g opacity="0"><animate attributeName="opacity" from="0" to="1" begin="0.38s" dur="0.3s" fill="freeze"/><rect x="116" y="50" width="10" height="10" rx="2" fill="#161b22" stroke="#21262d"/><rect x="116" y="62" width="10" height="10" rx="2" fill="#0e4429"/><rect x="116" y="74" width="10" height="10" rx="2" fill="#0e4429"/><rect x="116" y="86" width="10" height="10" rx="2" fill="#161b22" stroke="#21262d"/><rect x="116" y="98" width="10" height="10" rx="2" fill="#161b22" stroke="#21262d"/><rect x="116" y="110" width="10" height="10" rx="2" fill="#0e4429"/><rect x="116" y="122" width="10" height="10" rx="2" fill="#161b22" stroke="#21262d"/></g>
<g opacity="0"><animate attributeName="opacity" from="0" to="1" begin="0.40s" dur="0.3s" fill="freeze"/><rect x="128" y="50" width="10" height="10" rx="2" fill="#0e4429"/><rect x="128" y="62" width="10" height="10" rx="2" fill="#161b22" stroke="#21262d"/><rect x="128" y="74" width="10" height="10" rx="2" fill="#161b22" stroke="#21262d"/><rect x="128" y="86" width="10" height="10" rx="2" fill="#0e4429"/><rect x="128" y="98" width="10" height="10" rx="2" fill="#006d32"/><rect x="128" y="110" width="10" height="10" rx="2" fill="#161b22" stroke="#21262d"/><rect x="128" y="122" width="10" height="10" rx="2" fill="#26a641"/></g>
<g opacity="0"><animate attributeName="opacity" from="0" to="1" begin="0.43s" dur="0.3s" fill="freeze"/><rect x="140" y="50" width="10" height="10" rx="2" fill="#0e4429"/><rect x="140" y="62" width="10" height="10" rx="2" fill="#161b22" stroke="#21262d"/><rect x="140" y="74" width="10" height="10" rx="2" fill="#161b22" stroke="#21262d"/><rect x="140" y="86" width="10" height="10" rx="2" fill="#161b22" stroke="#21262d"/><rect x="140" y="98" width="10" height="10" rx="2" fill="#161b22" stroke="#21262d"/><rect x="140" y="110" width="10" height="10" rx="2" fill="#161b22" stroke="#21262d"/><rect x="140" y="122" width="10" height="10" rx="2" fill="#161b22" stroke="#21262d"/></g>
<g opacity="0"><animate attributeName="opacity" from="0" to="1" begin="0.45s" dur="0.3s" fill="freeze"/><rect x="152" y="50" width="10" height="10" rx="2" fill="#161b22" stroke="#21262d"/><rect x="152" y="62" width="10" height="10" rx="2" fill="#161b22" stroke="#21262d"/><rect x="152" y="74" width="10" height="10" rx="2" fill="#161b22" stroke="#21262d"/><rect x="152" y="86" width="10" height="10" rx="2" fill="#26a641"/><rect x="152" y="98" width="10" height="10" rx="2" fill="#161b22" stroke="#21262d"/><rect x="152" y="110" width="10" height="10" rx="2" fill="#0e4429"/><rect x="152" y="122" width="10" height="10" rx="2" fill="#161b22" stroke="#21262d"/></g>
<g opacity="0"><animate attributeName="opacity" from="0" to="1" begin="0.48s" dur="0.3s" fill="freeze"/><rect x="164" y="50" width="10" height="10" rx="2" fill="#161b22" stroke="#21262d"/><rect x="164" y="62" width="10" height="10" rx="2" fill="#161b22" stroke="#21262d"/><rect x="164" y="74" width="10" height="10" rx="2" fill="#161b22" stroke="#21262d"/><rect x="164" y="86" width="10" height="10" rx="2" fill="#161b22" stroke="#21262d"/><rect x="164" y="98" width="10" height="10" rx="2" fill="#161b22" stroke="#21262d"/><rect x="164" y="110" width="10" height="10" rx="2" fill="#161b22" stroke="#21262d"/><rect x="164" y="122" width="10" height="10" rx="2" fill="#161b22" stroke="#21262d"/></g>
<g opacity="0"><animate attributeName="opacity" from="0" to="1" begin="0.50s" dur="0.3s" fill="freeze"/><rect x="176" y="50" width="10" height="10" rx="2" fill="#161b22" stroke="#21262d"/><rect x="176" y="62" width="10" height="10" rx="2" fill="#161b22" stroke="#21262d"/><rect x="176" y="74" width="10" height="10" rx="2" fill="#161b22" stroke="#21262d"/><rect x="176" y="86" width="10" height="10" rx="2" fill="#161b22" stroke="#21262d"/><rect x="176" y="98" width="10" height="10" rx="2" fill="#161b22" stroke="#21262d"/><rect x="176" y="110" width="10" height="10" rx="2" fill="#161b22" stroke="#21262d"/><rect x="176" y="122" width="10" height="10" rx="2" fill="#161b22" stroke="#21262d"/></g>
<g opacity="0"><animate attributeName="opacity" from="0" to="1" begin="0.53s" dur="0.3s" fill="freeze"/><rect x="188" y="50" width="10" height="10" rx="2" fill="#161b22" stroke="#21262d"/><rect x="188" y="62" width="10" height="10" rx="2" fill="#161b22" stroke="#21262d"/><rect x="188" y="74" width="10" height="10" rx="2" fill="#161b22" stroke="#21262d"/><rect x="188" y="86" width="10" height="10" rx="2" fill="#161b22" stroke="#21262d"/><rect x="188" y="98" width="10" height="10" rx="2" fill="#161b22" stroke="#21262d"/><rect x="188" y="110" width="10" height="10" rx="2" fill="#161b22" stroke="#21262d"/><rect x="188" y="122" width="10" height="10" rx="2" fill="#161b22" stroke="#21262d"/></g>
<g opacity="0"><animate attributeName="opacity" from="0" to="1" begin="0.55s" dur="0.3s" fill="freeze"/><rect x="200" y="50" width="10" height="10" rx="2" fill="#161b22" stroke="#21262d"/><rect x="200" y="62" width="10" height="10" rx="2" fill="#161b22" stroke="#21262d"/><rect x="200" y="74" width="10" height="10" rx="2" fill="#26a641"/><rect x="200" y="86" width="10" height="10" rx="2" fill="#161b22" stroke="#21262d"/><rect x="200" y="98" width="10" height="10" rx="2" fill="#161b22" stroke="#21262d"/><rect x="200" y="110" width="10" height="10" rx="2" fill="#161b22" stroke="#21262d"/><rect x="200" y="122" width="10" height="10" rx="2" fill="#0e4429"/></g>
<g opacity="0"><animate attributeName="opacity" from="0" to="1" begin="0.57s" dur="0.3s" fill="freeze"/><rect x="212" y="50" width="10" height="10" rx="2" fill="#0e4429"/><rect x="212" y="62" width="10" height="10" rx="2" fill="#39d353"><animate attributeName="opacity" values="1;0.55;1" dur="2.6s" begin="2.55s" repeatCount="indefinite"/></rect><rect x="212" y="74" width="10" height="10" rx="2" fill="#0e4429"/><rect x="212" y="86" width="10" height="10" rx="2" fill="#0e4429"/><rect x="212" y="98" width="10" height="10" rx="2" fill="#0e4429"/><rect x="212" y="110" width="10" height="10" rx="2" fill="#006d32"/><rect x="212" y="122" width="10" height="10" rx="2" fill="#26a641"/></g>
<g opacity="0"><animate attributeName="opacity" from="0" to="1" begin="0.60s" dur="0.3s" fill="freeze"/><rect x="224" y="50" width="10" height="10" rx="2" fill="#161b22" stroke="#21262d"/><rect x="224" y="62" width="10" height="10" rx="2" fill="#006d32"/><rect x="224" y="74" width="10" height="10" rx="2" fill="#0e4429"/><rect x="224" y="86" width="10" height="10" rx="2" fill="#0e4429"/><rect x="224" y="98" width="10" height="10" rx="2" fill="#0e4429"/><rect x="224" y="110" width="10" height="10" rx="2" fill="#0e4429"/><rect x="224" y="122" width="10" height="10" rx="2" fill="#0e4429"/></g>
<g opacity="0"><animate attributeName="opacity" from="0" to="1" begin="0.62s" dur="0.3s" fill="freeze"/><rect x="236" y="50" width="10" height="10" rx="2" fill="#0e4429"/><rect x="236" y="62" width="10" height="10" rx="2" fill="#0e4429"/><rect x="236" y="74" width="10" height="10" rx="2" fill="#0e4429"/><rect x="236" y="86" width="10" height="10" rx="2" fill="#0e4429"/><rect x="236" y="98" width="10" height="10" rx="2" fill="#0e4429"/><rect x="236" y="110" width="10" height="10" rx="2" fill="#161b22" stroke="#21262d"/><rect x="236" y="122" width="10" height="10" rx="2" fill="#0e4429"/></g>
<g opacity="0"><animate attributeName="opacity" from="0" to="1" begin="0.65s" dur="0.3s" fill="freeze"/><rect x="248" y="50" width="10" height="10" rx="2" fill="#161b22" stroke="#21262d"/><rect x="248" y="62" width="10" height="10" rx="2" fill="#0e4429"/><rect x="248" y="74" width="10" height="10" rx="2" fill="#0e4429"/><rect x="248" y="86" width="10" height="10" rx="2" fill="#0e4429"/><rect x="248" y="98" width="10" height="10" rx="2" fill="#161b22" stroke="#21262d"/><rect x="248" y="110" width="10" height="10" rx="2" fill="#0e4429"/><rect x="248" y="122" width="10" height="10" rx="2" fill="#161b22" stroke="#21262d"/></g>
<g opacity="0"><animate attributeName="opacity" from="0" to="1" begin="0.68s" dur="0.3s" fill="freeze"/><rect x="260" y="50" width="10" height="10" rx="2" fill="#0e4429"/><rect x="260" y="62" width="10" height="10" rx="2" fill="#161b22" stroke="#21262d"/><rect x="260" y="74" width="10" height="10" rx="2" fill="#0e4429"/><rect x="260" y="86" width="10" height="10" rx="2" fill="#0e4429"/><rect x="260" y="98" width="10" height="10" rx="2" fill="#161b22" stroke="#21262d"/><rect x="260" y="110" width="10" height="10" rx="2" fill="#161b22" stroke="#21262d"/><rect x="260" y="122" width="10" height="10" rx="2" fill="#161b22" stroke="#21262d"/></g>
<g opacity="0"><animate attributeName="opacity" from="0" to="1" begin="0.70s" dur="0.3s" fill="freeze"/><rect x="272" y="50" width="10" height="10" rx="2" fill="#161b22" stroke="#21262d"/><rect x="272" y="62" width="10" height="10" rx="2" fill="#161b22" stroke="#21262d"/><rect x="272" y="74" width="10" height="10" rx="2" fill="#161b22" stroke="#21262d"/><rect x="272" y="86" width="10" height="10" rx="2" fill="#161b22" stroke="#21262d"/><rect x="272" y="98" width="10" height="10" rx="2" fill="#161b22" stroke="#21262d"/><rect x="272" y="110" width="10" height="10" rx="2" fill="#161b22" stroke="#21262d"/><rect x="272" y="122" width="10" height="10" rx="2" fill="#161b22" stroke="#21262d"/></g>
<g opacity="0"><animate attributeName="opacity" from="0" to="1" begin="0.73s" dur="0.3s" fill="freeze"/><rect x="284" y="50" width="10" height="10" rx="2" fill="#161b22" stroke="#21262d"/><rect x="284" y="62" width="10" height="10" rx="2" fill="#161b22" stroke="#21262d"/><rect x="284" y="74" width="10" height="10" rx="2" fill="#161b22" stroke="#21262d"/><rect x="284" y="86" width="10" height="10" rx="2" fill="#161b22" stroke="#21262d"/><rect x="284" y="98" width="10" height="10" rx="2" fill="#161b22" stroke="#21262d"/><rect x="284" y="110" width="10" height="10" rx="2" fill="#161b22" stroke="#21262d"/><rect x="284" y="122" width="10" height="10" rx="2" fill="#161b22" stroke="#21262d"/></g>
<g opacity="0"><animate attributeName="opacity" from="0" to="1" begin="0.75s" dur="0.3s" fill="freeze"/><rect x="296" y="50" width="10" height="10" rx="2" fill="#161b22" stroke="#21262d"/><rect x="296" y="62" width="10" height="10" rx="2" fill="#161b22" stroke="#21262d"/><rect x="296" y="74" width="10" height="10" rx="2" fill="#161b22" stroke="#21262d"/><rect x="296" y="86" width="10" height="10" rx="2" fill="#161b22" stroke="#21262d"/><rect x="296" y="98" width="10" height="10" rx="2" fill="#0e4429"/><rect x="296" y="110" width="10" height="10" rx="2" fill="#161b22" stroke="#21262d"/><rect x="296" y="122" width="10" height="10" rx="2" fill="#0e4429"/></g>
<g opacity="0"><animate attributeName="opacity" from="0" to="1" begin="0.78s" dur="0.3s" fill="freeze"/><rect x="308" y="50" width="10" height="10" rx="2" fill="#161b22" stroke="#21262d"/><rect x="308" y="62" width="10" height="10" rx="2" fill="#161b22" stroke="#21262d"/><rect x="308" y="74" width="10" height="10" rx="2" fill="#161b22" stroke="#21262d"/><rect x="308" y="86" width="10" height="10" rx="2" fill="#161b22" stroke="#21262d"/><rect x="308" y="98" width="10" height="10" rx="2" fill="#0e4429"/><rect x="308" y="110" width="10" height="10" rx="2" fill="#0e4429"/><rect x="308" y="122" width="10" height="10" rx="2" fill="#006d32"/></g>
<g opacity="0"><animate attributeName="opacity" from="0" to="1" begin="0.80s" dur="0.3s" fill="freeze"/><rect x="320" y="50" width="10" height="10" rx="2" fill="#006d32"/><rect x="320" y="62" width="10" height="10" rx="2" fill="#26a641"/><rect x="320" y="74" width="10" height="10" rx="2" fill="#0e4429"/><rect x="320" y="86" width="10" height="10" rx="2" fill="#0e4429"/><rect x="320" y="98" width="10" height="10" rx="2" fill="#0e4429"/><rect x="320" y="110" width="10" height="10" rx="2" fill="#0e4429"/><rect x="320" y="122" width="10" height="10" rx="2" fill="#161b22" stroke="#21262d"/></g>
<g opacity="0"><animate attributeName="opacity" from="0" to="1" begin="0.82s" dur="0.3s" fill="freeze"/><rect x="332" y="50" width="10" height="10" rx="2" fill="#006d32"/><rect x="332" y="62" width="10" height="10" rx="2" fill="#0e4429"/><rect x="332" y="74" width="10" height="10" rx="2" fill="#0e4429"/><rect x="332" y="86" width="10" height="10" rx="2" fill="#0e4429"/><rect x="332" y="98" width="10" height="10" rx="2" fill="#0e4429"/><rect x="332" y="110" width="10" height="10" rx="2" fill="#0e4429"/><rect x="332" y="122" width="10" height="10" rx="2" fill="#161b22" stroke="#21262d"/></g>
<g opacity="0"><animate attributeName="opacity" from="0" to="1" begin="0.85s" dur="0.3s" fill="freeze"/><rect x="344" y="50" width="10" height="10" rx="2" fill="#161b22" stroke="#21262d"/><rect x="344" y="62" width="10" height="10" rx="2" fill="#0e4429"/><rect x="344" y="74" width="10" height="10" rx="2" fill="#0e4429"/><rect x="344" y="86" width="10" height="10" rx="2" fill="#0e4429"/><rect x="344" y="98" width="10" height="10" rx="2" fill="#0e4429"/><rect x="344" y="110" width="10" height="10" rx="2" fill="#0e4429"/><rect x="344" y="122" width="10" height="10" rx="2" fill="#006d32"/></g>
<g opacity="0"><animate attributeName="opacity" from="0" to="1" begin="0.88s" dur="0.3s" fill="freeze"/><rect x="356" y="50" width="10" height="10" rx="2" fill="#0e4429"/><rect x="356" y="62" width="10" height="10" rx="2" fill="#0e4429"/><rect x="356" y="74" width="10" height="10" rx="2" fill="#0e4429"/><rect x="356" y="86" width="10" height="10" rx="2" fill="#161b22" stroke="#21262d"/><rect x="356" y="98" width="10" height="10" rx="2" fill="#161b22" stroke="#21262d"/><rect x="356" y="110" width="10" height="10" rx="2" fill="#161b22" stroke="#21262d"/><rect x="356" y="122" width="10" height="10" rx="2" fill="#161b22" stroke="#21262d"/></g>
<g opacity="0"><animate attributeName="opacity" from="0" to="1" begin="0.90s" dur="0.3s" fill="freeze"/><rect x="368" y="50" width="10" height="10" rx="2" fill="#006d32"/><rect x="368" y="62" width="10" height="10" rx="2" fill="#161b22" stroke="#21262d"/><rect x="368" y="74" width="10" height="10" rx="2" fill="#0e4429"/><rect x="368" y="86" width="10" height="10" rx="2" fill="#0e4429"/><rect x="368" y="98" width="10" height="10" rx="2" fill="#0e4429"/><rect x="368" y="110" width="10" height="10" rx="2" fill="#161b22" stroke="#21262d"/><rect x="368" y="122" width="10" height="10" rx="2" fill="#161b22" stroke="#21262d"/></g>
<g opacity="0"><animate attributeName="opacity" from="0" to="1" begin="0.93s" dur="0.3s" fill="freeze"/><rect x="380" y="50" width="10" height="10" rx="2" fill="#161b22" stroke="#21262d"/><rect x="380" y="62" width="10" height="10" rx="2" fill="#161b22" stroke="#21262d"/><rect x="380" y="74" width="10" height="10" rx="2" fill="#0e4429"/><rect x="380" y="86" width="10" height="10" rx="2" fill="#161b22" stroke="#21262d"/><rect x="380" y="98" width="10" height="10" rx="2" fill="#161b22" stroke="#21262d"/><rect x="380" y="110" width="10" height="10" rx="2" fill="#161b22" stroke="#21262d"/><rect x="380" y="122" width="10" height="10" rx="2" fill="#161b22" stroke="#21262d"/></g>
<g opacity="0"><animate attributeName="opacity" from="0" to="1" begin="0.95s" dur="0.3s" fill="freeze"/><rect x="392" y="50" width="10" height="10" rx="2" fill="#161b22" stroke="#21262d"/><rect x="392" y="62" width="10" height="10" rx="2" fill="#161b22" stroke="#21262d"/><rect x="392" y="74" width="10" height="10" rx="2" fill="#161b22" stroke="#21262d"/><rect x="392" y="86" width="10" height="10" rx="2" fill="#161b22" stroke="#21262d"/><rect x="392" y="98" width="10" height="10" rx="2" fill="#0e4429"/><rect x="392" y="110" width="10" height="10" rx="2" fill="#26a641"/><rect x="392" y="122" width="10" height="10" rx="2" fill="#0e4429"/></g>
<g opacity="0"><animate attributeName="opacity" from="0" to="1" begin="0.98s" dur="0.3s" fill="freeze"/><rect x="404" y="50" width="10" height="10" rx="2" fill="#161b22" stroke="#21262d"/><rect x="404" y="62" width="10" height="10" rx="2" fill="#161b22" stroke="#21262d"/><rect x="404" y="74" width="10" height="10" rx="2" fill="#0e4429"/><rect x="404" y="86" width="10" height="10" rx="2" fill="#161b22" stroke="#21262d"/><rect x="404" y="98" width="10" height="10" rx="2" fill="#161b22" stroke="#21262d"/><rect x="404" y="110" width="10" height="10" rx="2" fill="#161b22" stroke="#21262d"/><rect x="404" y="122" width="10" height="10" rx="2" fill="#161b22" stroke="#21262d"/></g>
<g opacity="0"><animate attributeName="opacity" from="0" to="1" begin="1.00s" dur="0.3s" fill="freeze"/><rect x="416" y="50" width="10" height="10" rx="2" fill="#161b22" stroke="#21262d"/><rect x="416" y="62" width="10" height="10" rx="2" fill="#161b22" stroke="#21262d"/><rect x="416" y="74" width="10" height="10" rx="2" fill="#161b22" stroke="#21262d"/><rect x="416" y="86" width="10" height="10" rx="2" fill="#161b22" stroke="#21262d"/><rect x="416" y="98" width="10" height="10" rx="2" fill="#161b22" stroke="#21262d"/><rect x="416" y="110" width="10" height="10" rx="2" fill="#161b22" stroke="#21262d"/><rect x="416" y="122" width="10" height="10" rx="2" fill="#006d32"/></g>
<g opacity="0"><animate attributeName="opacity" from="0" to="1" begin="1.03s" dur="0.3s" fill="freeze"/><rect x="428" y="50" width="10" height="10" rx="2" fill="#0e4429"/><rect x="428" y="62" width="10" height="10" rx="2" fill="#0e4429"/><rect x="428" y="74" width="10" height="10" rx="2" fill="#0e4429"/><rect x="428" y="86" width="10" height="10" rx="2" fill="#161b22" stroke="#21262d"/><rect x="428" y="98" width="10" height="10" rx="2" fill="#0e4429"/><rect x="428" y="110" width="10" height="10" rx="2" fill="#161b22" stroke="#21262d"/><rect x="428" y="122" width="10" height="10" rx="2" fill="#161b22" stroke="#21262d"/></g>
<g opacity="0"><animate attributeName="opacity" from="0" to="1" begin="1.05s" dur="0.3s" fill="freeze"/><rect x="440" y="50" width="10" height="10" rx="2" fill="#161b22" stroke="#21262d"/><rect x="440" y="62" width="10" height="10" rx="2" fill="#161b22" stroke="#21262d"/><rect x="440" y="74" width="10" height="10" rx="2" fill="#161b22" stroke="#21262d"/><rect x="440" y="86" width="10" height="10" rx="2" fill="#161b22" stroke="#21262d"/><rect x="440" y="98" width="10" height="10" rx="2" fill="#39d353"><animate attributeName="opacity" values="1;0.55;1" dur="2.6s" begin="3.50s" repeatCount="indefinite"/></rect><rect x="440" y="110" width="10" height="10" rx="2" fill="#39d353"><animate attributeName="opacity" values="1;0.55;1" dur="2.6s" begin="3.50s" repeatCount="indefinite"/></rect><rect x="440" y="122" width="10" height="10" rx="2" fill="#006d32"/></g>
<g opacity="0"><animate attributeName="opacity" from="0" to="1" begin="1.07s" dur="0.3s" fill="freeze"/><rect x="452" y="50" width="10" height="10" rx="2" fill="#006d32"/><rect x="452" y="62" width="10" height="10" rx="2" fill="#0e4429"/><rect x="452" y="74" width="10" height="10" rx="2" fill="#0e4429"/><rect x="452" y="86" width="10" height="10" rx="2" fill="#26a641"/><rect x="452" y="98" width="10" height="10" rx="2" fill="#0e4429"/><rect x="452" y="110" width="10" height="10" rx="2" fill="#161b22" stroke="#21262d"/><rect x="452" y="122" width="10" height="10" rx="2" fill="#0e4429"/></g>
<g opacity="0"><animate attributeName="opacity" from="0" to="1" begin="1.10s" dur="0.3s" fill="freeze"/><rect x="464" y="50" width="10" height="10" rx="2" fill="#161b22" stroke="#21262d"/><rect x="464" y="62" width="10" height="10" rx="2" fill="#161b22" stroke="#21262d"/><rect x="464" y="74" width="10" height="10" rx="2" fill="#39d353"><animate attributeName="opacity" values="1;0.55;1" dur="2.6s" begin="3.60s" repeatCount="indefinite"/></rect><rect x="464" y="86" width="10" height="10" rx="2" fill="#0e4429"/><rect x="464" y="98" width="10" height="10" rx="2" fill="#161b22" stroke="#21262d"/><rect x="464" y="110" width="10" height="10" rx="2" fill="#161b22" stroke="#21262d"/><rect x="464" y="122" width="10" height="10" rx="2" fill="#39d353"><animate attributeName="opacity" values="1;0.55;1" dur="2.6s" begin="3.60s" repeatCount="indefinite"/></rect></g>
<g opacity="0"><animate attributeName="opacity" from="0" to="1" begin="1.12s" dur="0.3s" fill="freeze"/><rect x="476" y="50" width="10" height="10" rx="2" fill="#39d353"><animate attributeName="opacity" values="1;0.55;1" dur="2.6s" begin="3.65s" repeatCount="indefinite"/></rect><rect x="476" y="62" width="10" height="10" rx="2" fill="#161b22" stroke="#21262d"/><rect x="476" y="74" width="10" height="10" rx="2" fill="#006d32"/><rect x="476" y="86" width="10" height="10" rx="2" fill="#161b22" stroke="#21262d"/><rect x="476" y="98" width="10" height="10" rx="2" fill="#161b22" stroke="#21262d"/><rect x="476" y="110" width="10" height="10" rx="2" fill="#161b22" stroke="#21262d"/><rect x="476" y="122" width="10" height="10" rx="2" fill="#161b22" stroke="#21262d"/></g>
<g opacity="0"><animate attributeName="opacity" from="0" to="1" begin="1.15s" dur="0.3s" fill="freeze"/><rect x="488" y="50" width="10" height="10" rx="2" fill="#26a641"/><rect x="488" y="62" width="10" height="10" rx="2" fill="#0e4429"/><rect x="488" y="74" width="10" height="10" rx="2" fill="#161b22" stroke="#21262d"/><rect x="488" y="86" width="10" height="10" rx="2" fill="#161b22" stroke="#21262d"/><rect x="488" y="98" width="10" height="10" rx="2" fill="#161b22" stroke="#21262d"/><rect x="488" y="110" width="10" height="10" rx="2" fill="#39d353"><animate attributeName="opacity" values="1;0.55;1" dur="2.6s" begin="3.70s" repeatCount="indefinite"/></rect><rect x="488" y="122" width="10" height="10" rx="2" fill="#161b22" stroke="#21262d"/></g>
<g opacity="0"><animate attributeName="opacity" from="0" to="1" begin="1.18s" dur="0.3s" fill="freeze"/><rect x="500" y="50" width="10" height="10" rx="2" fill="#161b22" stroke="#21262d"/><rect x="500" y="62" width="10" height="10" rx="2" fill="#161b22" stroke="#21262d"/><rect x="500" y="74" width="10" height="10" rx="2" fill="#161b22" stroke="#21262d"/><rect x="500" y="86" width="10" height="10" rx="2" fill="#161b22" stroke="#21262d"/><rect x="500" y="98" width="10" height="10" rx="2" fill="#39d353"><animate attributeName="opacity" values="1;0.55;1" dur="2.6s" begin="3.75s" repeatCount="indefinite"/></rect><rect x="500" y="110" width="10" height="10" rx="2" fill="#161b22" stroke="#21262d"/><rect x="500" y="122" width="10" height="10" rx="2" fill="#161b22" stroke="#21262d"/></g>
<g opacity="0"><animate attributeName="opacity" from="0" to="1" begin="1.20s" dur="0.3s" fill="freeze"/><rect x="512" y="50" width="10" height="10" rx="2" fill="#0e4429"/><rect x="512" y="62" width="10" height="10" rx="2" fill="#161b22" stroke="#21262d"/><rect x="512" y="74" width="10" height="10" rx="2" fill="#161b22" stroke="#21262d"/><rect x="512" y="86" width="10" height="10" rx="2" fill="#0e4429"/><rect x="512" y="98" width="10" height="10" rx="2" fill="#39d353"><animate attributeName="opacity" values="1;0.55;1" dur="2.6s" begin="3.80s" repeatCount="indefinite"/></rect><rect x="512" y="110" width="10" height="10" rx="2" fill="#161b22" stroke="#21262d"/><rect x="512" y="122" width="10" height="10" rx="2" fill="#161b22" stroke="#21262d"/></g>
<g opacity="0"><animate attributeName="opacity" from="0" to="1" begin="1.23s" dur="0.3s" fill="freeze"/><rect x="524" y="50" width="10" height="10" rx="2" fill="#161b22" stroke="#21262d"/><rect x="524" y="62" width="10" height="10" rx="2" fill="#161b22" stroke="#21262d"/><rect x="524" y="74" width="10" height="10" rx="2" fill="#0e4429"/><rect x="524" y="86" width="10" height="10" rx="2" fill="#161b22" stroke="#21262d"/><rect x="524" y="98" width="10" height="10" rx="2" fill="#161b22" stroke="#21262d"/><rect x="524" y="110" width="10" height="10" rx="2" fill="#161b22" stroke="#21262d"/><rect x="524" y="122" width="10" height="10" rx="2" fill="#161b22" stroke="#21262d"/></g>
<g opacity="0"><animate attributeName="opacity" from="0" to="1" begin="1.25s" dur="0.3s" fill="freeze"/><rect x="536" y="50" width="10" height="10" rx="2" fill="#161b22" stroke="#21262d"/><rect x="536" y="62" width="10" height="10" rx="2" fill="#161b22" stroke="#21262d"/><rect x="536" y="74" width="10" height="10" rx="2" fill="#161b22" stroke="#21262d"/><rect x="536" y="86" width="10" height="10" rx="2" fill="#161b22" stroke="#21262d"/><rect x="536" y="98" width="10" height="10" rx="2" fill="#161b22" stroke="#21262d"/><rect x="536" y="110" width="10" height="10" rx="2" fill="#161b22" stroke="#21262d"/><rect x="536" y="122" width="10" height="10" rx="2" fill="#161b22" stroke="#21262d"/></g>
<g opacity="0"><animate attributeName="opacity" from="0" to="1" begin="1.27s" dur="0.3s" fill="freeze"/><rect x="548" y="50" width="10" height="10" rx="2" fill="#39d353"><animate attributeName="opacity" values="1;0.55;1" dur="2.6s" begin="3.95s" repeatCount="indefinite"/></rect><rect x="548" y="62" width="10" height="10" rx="2" fill="#161b22" stroke="#21262d"/><rect x="548" y="74" width="10" height="10" rx="2" fill="#161b22" stroke="#21262d"/><rect x="548" y="86" width="10" height="10" rx="2" fill="#161b22" stroke="#21262d"/><rect x="548" y="98" width="10" height="10" rx="2" fill="#161b22" stroke="#21262d"/><rect x="548" y="110" width="10" height="10" rx="2" fill="#161b22" stroke="#21262d"/><rect x="548" y="122" width="10" height="10" rx="2" fill="#26a641"/></g>
<g opacity="0"><animate attributeName="opacity" from="0" to="1" begin="1.30s" dur="0.3s" fill="freeze"/><rect x="560" y="50" width="10" height="10" rx="2" fill="#161b22" stroke="#21262d"/><rect x="560" y="62" width="10" height="10" rx="2" fill="#161b22" stroke="#21262d"/><rect x="560" y="74" width="10" height="10" rx="2" fill="#39d353"><animate attributeName="opacity" values="1;0.55;1" dur="2.6s" begin="4.00s" repeatCount="indefinite"/></rect><rect x="560" y="86" width="10" height="10" rx="2" fill="#26a641"/><rect x="560" y="98" width="10" height="10" rx="2" fill="#161b22" stroke="#21262d"/><rect x="560" y="110" width="10" height="10" rx="2" fill="#161b22" stroke="#21262d"/><rect x="560" y="122" width="10" height="10" rx="2" fill="#161b22" stroke="#21262d"/></g>
<g opacity="0"><animate attributeName="opacity" from="0" to="1" begin="1.32s" dur="0.3s" fill="freeze"/><rect x="572" y="50" width="10" height="10" rx="2" fill="#161b22" stroke="#21262d"/><rect x="572" y="62" width="10" height="10" rx="2" fill="#161b22" stroke="#21262d"/><rect x="572" y="74" width="10" height="10" rx="2" fill="#161b22" stroke="#21262d"/><rect x="572" y="86" width="10" height="10" rx="2" fill="#161b22" stroke="#21262d"/><rect x="572" y="98" width="10" height="10" rx="2" fill="#39d353"><animate attributeName="opacity" values="1;0.55;1" dur="2.6s" begin="4.05s" repeatCount="indefinite"/></rect><rect x="572" y="110" width="10" height="10" rx="2" fill="#161b22" stroke="#21262d"/><rect x="572" y="122" width="10" height="10" rx="2" fill="#0e4429"/></g>
<g opacity="0"><animate attributeName="opacity" from="0" to="1" begin="1.35s" dur="0.3s" fill="freeze"/><rect x="584" y="50" width="10" height="10" rx="2" fill="#161b22" stroke="#21262d"/><rect x="584" y="62" width="10" height="10" rx="2" fill="#161b22" stroke="#21262d"/><rect x="584" y="74" width="10" height="10" rx="2" fill="#39d353"><animate attributeName="opacity" values="1;0.55;1" dur="2.6s" begin="4.10s" repeatCount="indefinite"/></rect><rect x="584" y="86" width="10" height="10" rx="2" fill="#006d32"/><rect x="584" y="98" width="10" height="10" rx="2" fill="#161b22" stroke="#21262d"/><rect x="584" y="110" width="10" height="10" rx="2" fill="#161b22" stroke="#21262d"/><rect x="584" y="122" width="10" height="10" rx="2" fill="#161b22" stroke="#21262d"/></g>
<g opacity="0"><animate attributeName="opacity" from="0" to="1" begin="1.38s" dur="0.3s" fill="freeze"/><rect x="596" y="50" width="10" height="10" rx="2" fill="#161b22" stroke="#21262d"/><rect x="596" y="62" width="10" height="10" rx="2" fill="#161b22" stroke="#21262d"/><rect x="596" y="74" width="10" height="10" rx="2" fill="#161b22" stroke="#21262d"/><rect x="596" y="86" width="10" height="10" rx="2" fill="#161b22" stroke="#21262d"/><rect x="596" y="98" width="10" height="10" rx="2" fill="#161b22" stroke="#21262d"/><rect x="596" y="110" width="10" height="10" rx="2" fill="#161b22" stroke="#21262d"/><rect x="596" y="122" width="10" height="10" rx="2" fill="#161b22" stroke="#21262d"/></g>
<g opacity="0"><animate attributeName="opacity" from="0" to="1" begin="1.40s" dur="0.3s" fill="freeze"/><rect x="608" y="50" width="10" height="10" rx="2" fill="#161b22" stroke="#21262d"/><rect x="608" y="62" width="10" height="10" rx="2" fill="#161b22" stroke="#21262d"/><rect x="608" y="74" width="10" height="10" rx="2" fill="#161b22" stroke="#21262d"/><rect x="608" y="86" width="10" height="10" rx="2" fill="#0e4429"/><rect x="608" y="98" width="10" height="10" rx="2" fill="#0e4429"/><rect x="608" y="110" width="10" height="10" rx="2" fill="#161b22" stroke="#21262d"/><rect x="608" y="122" width="10" height="10" rx="2" fill="#39d353"><animate attributeName="opacity" values="1;0.55;1" dur="2.6s" begin="4.20s" repeatCount="indefinite"/></rect></g>
<g opacity="0"><animate attributeName="opacity" from="0" to="1" begin="1.43s" dur="0.3s" fill="freeze"/><rect x="620" y="50" width="10" height="10" rx="2" fill="#0e4429"/><rect x="620" y="62" width="10" height="10" rx="2" fill="#0e4429"/><rect x="620" y="74" width="10" height="10" rx="2" fill="#161b22" stroke="#21262d"/><rect x="620" y="86" width="10" height="10" rx="2" fill="#161b22" stroke="#21262d"/><rect x="620" y="98" width="10" height="10" rx="2" fill="#161b22" stroke="#21262d"/><rect x="620" y="110" width="10" height="10" rx="2" fill="#39d353"><animate attributeName="opacity" values="1;0.55;1" dur="2.6s" begin="4.25s" repeatCount="indefinite"/></rect><rect x="620" y="122" width="10" height="10" rx="2" fill="#26a641"/></g>
<g opacity="0"><animate attributeName="opacity" from="0" to="1" begin="1.45s" dur="0.3s" fill="freeze"/><rect x="632" y="50" width="10" height="10" rx="2" fill="#161b22" stroke="#21262d"/><rect x="632" y="62" width="10" height="10" rx="2" fill="#39d353"><animate attributeName="opacity" values="1;0.55;1" dur="2.6s" begin="4.30s" repeatCount="indefinite"/></rect><rect x="632" y="74" width="10" height="10" rx="2" fill="#26a641"/><rect x="632" y="86" width="10" height="10" rx="2" fill="#006d32"/><rect x="632" y="98" width="10" height="10" rx="2" fill="#39d353"><animate attributeName="opacity" values="1;0.55;1" dur="2.6s" begin="4.30s" repeatCount="indefinite"/></rect><rect x="632" y="110" width="10" height="10" rx="2" fill="#161b22" stroke="#21262d"/><rect x="632" y="122" width="10" height="10" rx="2" fill="#006d32"/></g>
<g opacity="0"><animate attributeName="opacity" from="0" to="1" begin="1.48s" dur="0.3s" fill="freeze"/><rect x="644" y="50" width="10" height="10" rx="2" fill="#161b22" stroke="#21262d"/><rect x="644" y="62" width="10" height="10" rx="2" fill="#006d32"/><rect x="644" y="74" width="10" height="10" rx="2" fill="#39d353"><animate attributeName="opacity" values="1;0.55;1" dur="2.6s" begin="4.35s" repeatCount="indefinite"/></rect><rect x="644" y="86" width="10" height="10" rx="2" fill="#0e4429"/><rect x="644" y="98" width="10" height="10" rx="2" fill="#161b22" stroke="#21262d"/><rect x="644" y="110" width="10" height="10" rx="2" fill="#0e4429"/><rect x="644" y="122" width="10" height="10" rx="2" fill="#39d353"><animate attributeName="opacity" values="1;0.55;1" dur="2.6s" begin="4.35s" repeatCount="indefinite"/></rect></g>
<g opacity="0"><animate attributeName="opacity" from="0" to="1" begin="1.50s" dur="0.3s" fill="freeze"/><rect x="656" y="50" width="10" height="10" rx="2" fill="#26a641"/><rect x="656" y="62" width="10" height="10" rx="2" fill="#0e4429"/><rect x="656" y="74" width="10" height="10" rx="2" fill="#26a641"/><rect x="656" y="86" width="10" height="10" rx="2" fill="#161b22" stroke="#21262d"/></g>
<text x="128" y="200" text-anchor="middle" class="mid" fill="#39d353">5 days</text>
<text x="128" y="224" text-anchor="middle" class="lbl">CURRENT STREAK</text>
<text x="337" y="200" text-anchor="middle" class="mid" fill="#e6edf3">11 days</text>
<text x="337" y="224" text-anchor="middle" class="lbl">LONGEST STREAK</text>
<text x="543" y="200" text-anchor="middle" class="mid" fill="#e6edf3">73</text>
<text x="543" y="224" text-anchor="middle" class="lbl">BUSIEST DAY, MAY 26</text>
<text x="749" y="200" text-anchor="middle" class="mid" fill="#e6edf3">130</text>
<text x="749" y="224" text-anchor="middle" class="lbl">DAYS ACTIVE</text>
<line x1="234" y1="176" x2="234" y2="228" stroke="#21262d"/>
<line x1="440" y1="176" x2="440" y2="228" stroke="#21262d"/>
<line x1="646" y1="176" x2="646" y2="228" stroke="#21262d"/>
<text x="32" y="262" class="bar">every cell above is drawn by scripts/generate_stats.py, private contributions included</text>
</svg>
