<svg viewBox="0 0 880 350" width="880" height="350" xmlns="http://www.w3.org/2000/svg" role="img" aria-label="skills as running processes">
  <style>
    text { font-family: 'Cascadia Code', 'Fira Code', Consolas, 'DejaVu Sans Mono', monospace; font-size: 14px; }
    .bar { font-size: 11px; fill: #484f58; }
    .hd { font-size: 11px; fill: #8b949e; letter-spacing: 2px; }
    .nm { fill: #e6edf3; }
    .up { fill: #8b949e; }
  </style>
  <defs>
    <clipPath id="ttype">
      <rect x="24" y="48" height="22" width="0">
        <animate attributeName="width" from="0" to="300" begin="0.3s" dur="0.7s" fill="freeze"/>
      </rect>
    </clipPath>
  </defs>

  <rect x="0.5" y="0.5" width="879" height="349" rx="6" fill="#0d1117" stroke="#30363d"/>
  <path d="M 0.5 6.5 a 6 6 0 0 1 6 -6 h 867 a 6 6 0 0 1 6 6 v 25.5 h -879 z" fill="#161b22"/>
  <circle cx="22" cy="16" r="5" fill="#30363d"/>
  <circle cx="42" cy="16" r="5" fill="#30363d"/>
  <circle cx="62" cy="16" r="5" fill="#30363d"/>
  <text x="440" y="21" text-anchor="middle" class="bar">madhu@github: ~/skills</text>

  <text x="24" y="64" clip-path="url(#ttype)"><tspan fill="#39d353">$</tspan><tspan fill="#e6edf3"> top -o load</tspan></text>

  <text x="24" y="102" class="hd">PROCESS</text>
  <text x="400" y="102" class="hd">UPTIME</text>
  <text x="520" y="102" class="hd">LOAD</text>
  <g opacity="0"><animate attributeName="opacity" from="0" to="1" begin="1.20s" dur="0.25s" fill="freeze"/>
    <text x="24" y="132" class="nm">python</text>
    <text x="400" y="132" class="up">3y</text>
    <rect x="520" y="121" width="12" height="12" rx="2" fill="#26a641"/>
    <rect x="536" y="121" width="12" height="12" rx="2" fill="#26a641"/>
    <rect x="552" y="121" width="12" height="12" rx="2" fill="#26a641"/>
    <rect x="568" y="121" width="12" height="12" rx="2" fill="#26a641"/>
    <rect x="584" y="121" width="12" height="12" rx="2" fill="#26a641"/>
    <rect x="600" y="121" width="12" height="12" rx="2" fill="#26a641"/>
    <rect x="616" y="121" width="12" height="12" rx="2" fill="#26a641"/>
    <rect x="632" y="121" width="12" height="12" rx="2" fill="#26a641"/>
    <rect x="648" y="121" width="12" height="12" rx="2" fill="#26a641"/>
    <rect x="664" y="121" width="12" height="12" rx="2" fill="#26a641"/>
    <rect x="680" y="121" width="12" height="12" rx="2" fill="#26a641"/>
    <rect x="696" y="121" width="12" height="12" rx="2" fill="#26a641"/>
    <rect x="712" y="121" width="12" height="12" rx="2" fill="#26a641"/>
    <rect x="728" y="121" width="12" height="12" rx="2" fill="#26a641"/>
    <rect x="744" y="121" width="12" height="12" rx="2" fill="#26a641"/>
    <rect x="760" y="121" width="12" height="12" rx="2" fill="#26a641"/>
    <rect x="776" y="121" width="12" height="12" rx="2" fill="#39d353"><animate attributeName="opacity" values="1;0.35;1" dur="1.6s" begin="1.60s" repeatCount="indefinite"/></rect>
    <rect x="792" y="121" width="12" height="12" rx="2" fill="#161b22" stroke="#21262d"/>
    <rect x="808" y="121" width="12" height="12" rx="2" fill="#161b22" stroke="#21262d"/>
    <rect x="824" y="121" width="12" height="12" rx="2" fill="#161b22" stroke="#21262d"/>
  </g>
  <g opacity="0"><animate attributeName="opacity" from="0" to="1" begin="1.35s" dur="0.25s" fill="freeze"/>
    <text x="24" y="160" class="nm">typescript / javascript</text>
    <text x="400" y="160" class="up">2y</text>
    <rect x="520" y="149" width="12" height="12" rx="2" fill="#26a641"/>
    <rect x="536" y="149" width="12" height="12" rx="2" fill="#26a641"/>
    <rect x="552" y="149" width="12" height="12" rx="2" fill="#26a641"/>
    <rect x="568" y="149" width="12" height="12" rx="2" fill="#26a641"/>
    <rect x="584" y="149" width="12" height="12" rx="2" fill="#26a641"/>
    <rect x="600" y="149" width="12" height="12" rx="2" fill="#26a641"/>
    <rect x="616" y="149" width="12" height="12" rx="2" fill="#26a641"/>
    <rect x="632" y="149" width="12" height="12" rx="2" fill="#26a641"/>
    <rect x="648" y="149" width="12" height="12" rx="2" fill="#26a641"/>
    <rect x="664" y="149" width="12" height="12" rx="2" fill="#26a641"/>
    <rect x="680" y="149" width="12" height="12" rx="2" fill="#26a641"/>
    <rect x="696" y="149" width="12" height="12" rx="2" fill="#26a641"/>
    <rect x="712" y="149" width="12" height="12" rx="2" fill="#26a641"/>
    <rect x="728" y="149" width="12" height="12" rx="2" fill="#26a641"/>
    <rect x="744" y="149" width="12" height="12" rx="2" fill="#26a641"/>
    <rect x="760" y="149" width="12" height="12" rx="2" fill="#39d353"><animate attributeName="opacity" values="1;0.35;1" dur="1.6s" begin="1.75s" repeatCount="indefinite"/></rect>
    <rect x="776" y="149" width="12" height="12" rx="2" fill="#161b22" stroke="#21262d"/>
    <rect x="792" y="149" width="12" height="12" rx="2" fill="#161b22" stroke="#21262d"/>
    <rect x="808" y="149" width="12" height="12" rx="2" fill="#161b22" stroke="#21262d"/>
    <rect x="824" y="149" width="12" height="12" rx="2" fill="#161b22" stroke="#21262d"/>
  </g>
  <g opacity="0"><animate attributeName="opacity" from="0" to="1" begin="1.50s" dur="0.25s" fill="freeze"/>
    <text x="24" y="188" class="nm">react / node</text>
    <text x="400" y="188" class="up">2y</text>
    <rect x="520" y="177" width="12" height="12" rx="2" fill="#26a641"/>
    <rect x="536" y="177" width="12" height="12" rx="2" fill="#26a641"/>
    <rect x="552" y="177" width="12" height="12" rx="2" fill="#26a641"/>
    <rect x="568" y="177" width="12" height="12" rx="2" fill="#26a641"/>
    <rect x="584" y="177" width="12" height="12" rx="2" fill="#26a641"/>
    <rect x="600" y="177" width="12" height="12" rx="2" fill="#26a641"/>
    <rect x="616" y="177" width="12" height="12" rx="2" fill="#26a641"/>
    <rect x="632" y="177" width="12" height="12" rx="2" fill="#26a641"/>
    <rect x="648" y="177" width="12" height="12" rx="2" fill="#26a641"/>
    <rect x="664" y="177" width="12" height="12" rx="2" fill="#26a641"/>
    <rect x="680" y="177" width="12" height="12" rx="2" fill="#26a641"/>
    <rect x="696" y="177" width="12" height="12" rx="2" fill="#26a641"/>
    <rect x="712" y="177" width="12" height="12" rx="2" fill="#26a641"/>
    <rect x="728" y="177" width="12" height="12" rx="2" fill="#26a641"/>
    <rect x="744" y="177" width="12" height="12" rx="2" fill="#39d353"><animate attributeName="opacity" values="1;0.35;1" dur="1.6s" begin="1.90s" repeatCount="indefinite"/></rect>
    <rect x="760" y="177" width="12" height="12" rx="2" fill="#161b22" stroke="#21262d"/>
    <rect x="776" y="177" width="12" height="12" rx="2" fill="#161b22" stroke="#21262d"/>
    <rect x="792" y="177" width="12" height="12" rx="2" fill="#161b22" stroke="#21262d"/>
    <rect x="808" y="177" width="12" height="12" rx="2" fill="#161b22" stroke="#21262d"/>
    <rect x="824" y="177" width="12" height="12" rx="2" fill="#161b22" stroke="#21262d"/>
  </g>
  <g opacity="0"><animate attributeName="opacity" from="0" to="1" begin="1.65s" dur="0.25s" fill="freeze"/>
    <text x="24" y="216" class="nm">mongodb / mysql</text>
    <text x="400" y="216" class="up">2y</text>
    <rect x="520" y="205" width="12" height="12" rx="2" fill="#26a641"/>
    <rect x="536" y="205" width="12" height="12" rx="2" fill="#26a641"/>
    <rect x="552" y="205" width="12" height="12" rx="2" fill="#26a641"/>
    <rect x="568" y="205" width="12" height="12" rx="2" fill="#26a641"/>
    <rect x="584" y="205" width="12" height="12" rx="2" fill="#26a641"/>
    <rect x="600" y="205" width="12" height="12" rx="2" fill="#26a641"/>
    <rect x="616" y="205" width="12" height="12" rx="2" fill="#26a641"/>
    <rect x="632" y="205" width="12" height="12" rx="2" fill="#26a641"/>
    <rect x="648" y="205" width="12" height="12" rx="2" fill="#26a641"/>
    <rect x="664" y="205" width="12" height="12" rx="2" fill="#26a641"/>
    <rect x="680" y="205" width="12" height="12" rx="2" fill="#26a641"/>
    <rect x="696" y="205" width="12" height="12" rx="2" fill="#26a641"/>
    <rect x="712" y="205" width="12" height="12" rx="2" fill="#39d353"><animate attributeName="opacity" values="1;0.35;1" dur="1.6s" begin="2.05s" repeatCount="indefinite"/></rect>
    <rect x="728" y="205" width="12" height="12" rx="2" fill="#161b22" stroke="#21262d"/>
    <rect x="744" y="205" width="12" height="12" rx="2" fill="#161b22" stroke="#21262d"/>
    <rect x="760" y="205" width="12" height="12" rx="2" fill="#161b22" stroke="#21262d"/>
    <rect x="776" y="205" width="12" height="12" rx="2" fill="#161b22" stroke="#21262d"/>
    <rect x="792" y="205" width="12" height="12" rx="2" fill="#161b22" stroke="#21262d"/>
    <rect x="808" y="205" width="12" height="12" rx="2" fill="#161b22" stroke="#21262d"/>
    <rect x="824" y="205" width="12" height="12" rx="2" fill="#161b22" stroke="#21262d"/>
  </g>
  <g opacity="0"><animate attributeName="opacity" from="0" to="1" begin="1.80s" dur="0.25s" fill="freeze"/>
    <text x="24" y="244" class="nm">tensorflow / sklearn</text>
    <text x="400" y="244" class="up">1y</text>
    <rect x="520" y="233" width="12" height="12" rx="2" fill="#26a641"/>
    <rect x="536" y="233" width="12" height="12" rx="2" fill="#26a641"/>
    <rect x="552" y="233" width="12" height="12" rx="2" fill="#26a641"/>
    <rect x="568" y="233" width="12" height="12" rx="2" fill="#26a641"/>
    <rect x="584" y="233" width="12" height="12" rx="2" fill="#26a641"/>
    <rect x="600" y="233" width="12" height="12" rx="2" fill="#26a641"/>
    <rect x="616" y="233" width="12" height="12" rx="2" fill="#26a641"/>
    <rect x="632" y="233" width="12" height="12" rx="2" fill="#26a641"/>
    <rect x="648" y="233" width="12" height="12" rx="2" fill="#26a641"/>
    <rect x="664" y="233" width="12" height="12" rx="2" fill="#26a641"/>
    <rect x="680" y="233" width="12" height="12" rx="2" fill="#26a641"/>
    <rect x="696" y="233" width="12" height="12" rx="2" fill="#39d353"><animate attributeName="opacity" values="1;0.35;1" dur="1.6s" begin="2.20s" repeatCount="indefinite"/></rect>
    <rect x="712" y="233" width="12" height="12" rx="2" fill="#161b22" stroke="#21262d"/>
    <rect x="728" y="233" width="12" height="12" rx="2" fill="#161b22" stroke="#21262d"/>
    <rect x="744" y="233" width="12" height="12" rx="2" fill="#161b22" stroke="#21262d"/>
    <rect x="760" y="233" width="12" height="12" rx="2" fill="#161b22" stroke="#21262d"/>
    <rect x="776" y="233" width="12" height="12" rx="2" fill="#161b22" stroke="#21262d"/>
    <rect x="792" y="233" width="12" height="12" rx="2" fill="#161b22" stroke="#21262d"/>
    <rect x="808" y="233" width="12" height="12" rx="2" fill="#161b22" stroke="#21262d"/>
    <rect x="824" y="233" width="12" height="12" rx="2" fill="#161b22" stroke="#21262d"/>
  </g>
  <g opacity="0"><animate attributeName="opacity" from="0" to="1" begin="1.95s" dur="0.25s" fill="freeze"/>
    <text x="24" y="272" class="nm">java</text>
    <text x="400" y="272" class="up">2y</text>
    <rect x="520" y="261" width="12" height="12" rx="2" fill="#26a641"/>
    <rect x="536" y="261" width="12" height="12" rx="2" fill="#26a641"/>
    <rect x="552" y="261" width="12" height="12" rx="2" fill="#26a641"/>
    <rect x="568" y="261" width="12" height="12" rx="2" fill="#26a641"/>
    <rect x="584" y="261" width="12" height="12" rx="2" fill="#26a641"/>
    <rect x="600" y="261" width="12" height="12" rx="2" fill="#26a641"/>
    <rect x="616" y="261" width="12" height="12" rx="2" fill="#26a641"/>
    <rect x="632" y="261" width="12" height="12" rx="2" fill="#26a641"/>
    <rect x="648" y="261" width="12" height="12" rx="2" fill="#26a641"/>
    <rect x="664" y="261" width="12" height="12" rx="2" fill="#26a641"/>
    <rect x="680" y="261" width="12" height="12" rx="2" fill="#26a641"/>
    <rect x="696" y="261" width="12" height="12" rx="2" fill="#39d353"><animate attributeName="opacity" values="1;0.35;1" dur="1.6s" begin="2.35s" repeatCount="indefinite"/></rect>
    <rect x="712" y="261" width="12" height="12" rx="2" fill="#161b22" stroke="#21262d"/>
    <rect x="728" y="261" width="12" height="12" rx="2" fill="#161b22" stroke="#21262d"/>
    <rect x="744" y="261" width="12" height="12" rx="2" fill="#161b22" stroke="#21262d"/>
    <rect x="760" y="261" width="12" height="12" rx="2" fill="#161b22" stroke="#21262d"/>
    <rect x="776" y="261" width="12" height="12" rx="2" fill="#161b22" stroke="#21262d"/>
    <rect x="792" y="261" width="12" height="12" rx="2" fill="#161b22" stroke="#21262d"/>
    <rect x="808" y="261" width="12" height="12" rx="2" fill="#161b22" stroke="#21262d"/>
    <rect x="824" y="261" width="12" height="12" rx="2" fill="#161b22" stroke="#21262d"/>
  </g>
  <g opacity="0"><animate attributeName="opacity" from="0" to="1" begin="2.10s" dur="0.25s" fill="freeze"/>
    <text x="24" y="300" class="nm">aws / docker</text>
    <text x="400" y="300" class="up">&lt;1y</text>
    <rect x="520" y="289" width="12" height="12" rx="2" fill="#26a641"/>
    <rect x="536" y="289" width="12" height="12" rx="2" fill="#26a641"/>
    <rect x="552" y="289" width="12" height="12" rx="2" fill="#26a641"/>
    <rect x="568" y="289" width="12" height="12" rx="2" fill="#26a641"/>
    <rect x="584" y="289" width="12" height="12" rx="2" fill="#26a641"/>
    <rect x="600" y="289" width="12" height="12" rx="2" fill="#26a641"/>
    <rect x="616" y="289" width="12" height="12" rx="2" fill="#26a641"/>
    <rect x="632" y="289" width="12" height="12" rx="2" fill="#39d353"><animate attributeName="opacity" values="1;0.35;1" dur="1.6s" begin="2.50s" repeatCount="indefinite"/></rect>
    <rect x="648" y="289" width="12" height="12" rx="2" fill="#161b22" stroke="#21262d"/>
    <rect x="664" y="289" width="12" height="12" rx="2" fill="#161b22" stroke="#21262d"/>
    <rect x="680" y="289" width="12" height="12" rx="2" fill="#161b22" stroke="#21262d"/>
    <rect x="696" y="289" width="12" height="12" rx="2" fill="#161b22" stroke="#21262d"/>
    <rect x="712" y="289" width="12" height="12" rx="2" fill="#161b22" stroke="#21262d"/>
    <rect x="728" y="289" width="12" height="12" rx="2" fill="#161b22" stroke="#21262d"/>
    <rect x="744" y="289" width="12" height="12" rx="2" fill="#161b22" stroke="#21262d"/>
    <rect x="760" y="289" width="12" height="12" rx="2" fill="#161b22" stroke="#21262d"/>
    <rect x="776" y="289" width="12" height="12" rx="2" fill="#161b22" stroke="#21262d"/>
    <rect x="792" y="289" width="12" height="12" rx="2" fill="#161b22" stroke="#21262d"/>
    <rect x="808" y="289" width="12" height="12" rx="2" fill="#161b22" stroke="#21262d"/>
    <rect x="824" y="289" width="12" height="12" rx="2" fill="#161b22" stroke="#21262d"/>
  </g>
  <text x="24" y="330" class="bar" opacity="0">uptime measured since first commit, 2023. no process has been killed yet.<animate attributeName="opacity" from="0" to="1" begin="2.5s" dur="0.3s" fill="freeze"/></text>
</svg>
