<svg viewBox="0 0 880 300" width="880" height="300" xmlns="http://www.w3.org/2000/svg" role="img" aria-label="github stats">
<style>text { font-family: 'Cascadia Code', 'Fira Code', Consolas, 'DejaVu Sans Mono', monospace; } .bar { font-size: 11px; fill: #484f58; } .num { font-size: 38px; font-weight: bold; fill: #e6edf3; } .lbl { font-size: 11px; fill: #8b949e; letter-spacing: 2px; } .leg { font-size: 12px; fill: #8b949e; }</style>
<rect x="0.5" y="0.5" width="879" height="299" rx="6" fill="#0d1117" stroke="#30363d"/>
<path d="M 0.5 6.5 a 6 6 0 0 1 6 -6 h 867 a 6 6 0 0 1 6 6 v 25.5 h -879 z" fill="#161b22"/>
<circle cx="22" cy="16" r="5" fill="#30363d"/>
<circle cx="42" cy="16" r="5" fill="#30363d"/>
<circle cx="62" cy="16" r="5" fill="#30363d"/>
<text x="440" y="21" text-anchor="middle" class="bar">$ ./stats --render --daily</text>
<text x="856" y="21" text-anchor="end" class="bar">synced 2026-07-17</text>
<text x="128" y="118" text-anchor="middle" class="num" fill="#39d353">700</text>
<text x="128" y="146" text-anchor="middle" class="lbl">CONTRIBUTIONS</text>
<text x="128" y="163" text-anchor="middle" class="bar">past year, public + private</text>
<text x="337" y="118" text-anchor="middle" class="num" fill="#e6edf3">6</text>
<text x="337" y="146" text-anchor="middle" class="lbl">STARS EARNED</text>
<text x="543" y="118" text-anchor="middle" class="num" fill="#e6edf3">14</text>
<text x="543" y="146" text-anchor="middle" class="lbl">FOLLOWERS</text>
<text x="749" y="118" text-anchor="middle" class="num" fill="#e6edf3">24</text>
<text x="749" y="146" text-anchor="middle" class="lbl">PUBLIC REPOS</text>
<line x1="234" y1="80" x2="234" y2="160" stroke="#21262d"/>
<line x1="440" y1="80" x2="440" y2="160" stroke="#21262d"/>
<line x1="646" y1="80" x2="646" y2="160" stroke="#21262d"/>
<text x="32" y="200" class="lbl">LANGUAGE MIX</text>
<defs><clipPath id="lb"><rect x="32" y="208" width="816" height="12" rx="6"/></clipPath></defs>
<g clip-path="url(#lb)">
<rect x="32" y="208" width="816" height="12" fill="#161b22"/>
<rect x="32" y="208" width="291" height="12" fill="#39d353"/>
<rect x="323" y="208" width="233" height="12" fill="#26a641"/>
<rect x="556" y="208" width="117" height="12" fill="#006d32"/>
<rect x="673" y="208" width="58" height="12" fill="#0e4429"/>
<rect x="731" y="208" width="58" height="12" fill="#484f58"/>
</g>
<rect x="32" y="238" width="10" height="10" rx="2" fill="#39d353"/>
<text x="48" y="247" class="leg">javascript 36%</text>
<rect x="192" y="238" width="10" height="10" rx="2" fill="#26a641"/>
<text x="208" y="247" class="leg">typescript 29%</text>
<rect x="352" y="238" width="10" height="10" rx="2" fill="#006d32"/>
<text x="368" y="247" class="leg">python 14%</text>
<rect x="512" y="238" width="10" height="10" rx="2" fill="#0e4429"/>
<text x="528" y="247" class="leg">jupyter notebook 7%</text>
<rect x="672" y="238" width="10" height="10" rx="2" fill="#484f58"/>
<text x="688" y="247" class="leg">java 7%</text>
<text x="32" y="282" class="bar">generated by scripts/generate_stats.py in this repo, refreshed daily by github actions, zero third-party card services</text>
</svg>
